<mxfile host="app.diagrams.net" modified="2023-11-02T00:23:41.504Z" agent="Mozilla/5.0 (Windows NT 10.0; Win64; x64) AppleWebKit/537.36 (KHTML, like Gecko) Chrome/119.0.0.0 Safari/537.36" etag="blpX2HmGURd8MoM74AXJ" version="22.0.8" type="device">
  <diagram name="第 1 页" id="TRjruBidGkNZ3fZ60dId">
    <mxGraphModel dx="724" dy="368" grid="1" gridSize="10" guides="1" tooltips="1" connect="1" arrows="1" fold="1" page="1" pageScale="1" pageWidth="1654" pageHeight="1169" math="0" shadow="0">
      <root>
        <mxCell id="0" />
        <mxCell id="1" parent="0" />
        <mxCell id="gGfzV0eq18XN1l7NrBOw-8" value="" style="edgeStyle=orthogonalEdgeStyle;rounded=0;orthogonalLoop=1;jettySize=auto;html=1;fontStyle=1;align=center;fontSize=16;" parent="1" source="gGfzV0eq18XN1l7NrBOw-1" target="gGfzV0eq18XN1l7NrBOw-2" edge="1">
          <mxGeometry relative="1" as="geometry" />
        </mxCell>
        <mxCell id="gGfzV0eq18XN1l7NrBOw-1" value="User start login" style="ellipse;whiteSpace=wrap;html=1;fontStyle=1;align=center;fontSize=16;" parent="1" vertex="1">
          <mxGeometry x="170" y="450" width="120" height="80" as="geometry" />
        </mxCell>
        <mxCell id="gGfzV0eq18XN1l7NrBOw-9" value="" style="edgeStyle=orthogonalEdgeStyle;rounded=0;orthogonalLoop=1;jettySize=auto;html=1;fontStyle=1;align=center;fontSize=16;" parent="1" source="gGfzV0eq18XN1l7NrBOw-2" target="gGfzV0eq18XN1l7NrBOw-3" edge="1">
          <mxGeometry relative="1" as="geometry" />
        </mxCell>
        <mxCell id="gGfzV0eq18XN1l7NrBOw-2" value="User click login button" style="rounded=0;whiteSpace=wrap;html=1;fontStyle=1;align=center;fontSize=16;" parent="1" vertex="1">
          <mxGeometry x="340" y="460" width="120" height="60" as="geometry" />
        </mxCell>
        <mxCell id="gGfzV0eq18XN1l7NrBOw-10" value="" style="edgeStyle=orthogonalEdgeStyle;rounded=0;orthogonalLoop=1;jettySize=auto;html=1;fontStyle=1;align=center;fontSize=16;" parent="1" source="gGfzV0eq18XN1l7NrBOw-3" target="gGfzV0eq18XN1l7NrBOw-4" edge="1">
          <mxGeometry relative="1" as="geometry" />
        </mxCell>
        <mxCell id="gGfzV0eq18XN1l7NrBOw-3" value="User enter email and password" style="rounded=0;whiteSpace=wrap;html=1;fontStyle=1;align=center;fontSize=16;" parent="1" vertex="1">
          <mxGeometry x="500" y="460" width="120" height="60" as="geometry" />
        </mxCell>
        <mxCell id="gGfzV0eq18XN1l7NrBOw-12" value="" style="edgeStyle=orthogonalEdgeStyle;rounded=0;orthogonalLoop=1;jettySize=auto;html=1;fontStyle=1;align=center;fontSize=16;" parent="1" source="gGfzV0eq18XN1l7NrBOw-4" target="gGfzV0eq18XN1l7NrBOw-6" edge="1">
          <mxGeometry relative="1" as="geometry" />
        </mxCell>
        <mxCell id="gGfzV0eq18XN1l7NrBOw-33" value="" style="edgeStyle=orthogonalEdgeStyle;rounded=0;orthogonalLoop=1;jettySize=auto;html=1;fontSize=16;" parent="1" source="gGfzV0eq18XN1l7NrBOw-4" target="gGfzV0eq18XN1l7NrBOw-32" edge="1">
          <mxGeometry relative="1" as="geometry" />
        </mxCell>
        <mxCell id="gGfzV0eq18XN1l7NrBOw-4" value="If info is all correct" style="rhombus;whiteSpace=wrap;html=1;fontStyle=1;align=center;fontSize=16;" parent="1" vertex="1">
          <mxGeometry x="652.5" y="440" width="115" height="100" as="geometry" />
        </mxCell>
        <mxCell id="gGfzV0eq18XN1l7NrBOw-16" value="" style="edgeStyle=orthogonalEdgeStyle;rounded=0;orthogonalLoop=1;jettySize=auto;html=1;fontStyle=1;align=center;fontSize=16;" parent="1" source="gGfzV0eq18XN1l7NrBOw-6" target="gGfzV0eq18XN1l7NrBOw-15" edge="1">
          <mxGeometry relative="1" as="geometry" />
        </mxCell>
        <mxCell id="gGfzV0eq18XN1l7NrBOw-6" value="Show error message" style="rounded=0;whiteSpace=wrap;html=1;fontStyle=1;align=center;fontSize=16;" parent="1" vertex="1">
          <mxGeometry x="650" y="580" width="120" height="60" as="geometry" />
        </mxCell>
        <mxCell id="gGfzV0eq18XN1l7NrBOw-7" value="&lt;span style=&quot;font-size: 16px;&quot;&gt;Over&lt;/span&gt;" style="ellipse;whiteSpace=wrap;html=1;fontStyle=1;align=center;fontSize=16;" parent="1" vertex="1">
          <mxGeometry x="790" y="420" width="120" height="80" as="geometry" />
        </mxCell>
        <mxCell id="gGfzV0eq18XN1l7NrBOw-13" value="&lt;span style=&quot;font-size: 16px;&quot;&gt;&lt;font style=&quot;font-size: 16px;&quot;&gt;No&lt;/font&gt;&lt;/span&gt;" style="text;html=1;align=center;verticalAlign=middle;resizable=0;points=[];autosize=1;strokeColor=none;fillColor=none;fontStyle=1;fontSize=16;" parent="1" vertex="1">
          <mxGeometry x="650" y="510" width="40" height="30" as="geometry" />
        </mxCell>
        <mxCell id="gGfzV0eq18XN1l7NrBOw-14" value="&lt;span style=&quot;font-size: 16px;&quot;&gt;&lt;font style=&quot;font-size: 16px;&quot;&gt;Yes&lt;/font&gt;&lt;/span&gt;" style="text;html=1;align=center;verticalAlign=middle;resizable=0;points=[];autosize=1;strokeColor=none;fillColor=none;fontStyle=1;fontSize=16;" parent="1" vertex="1">
          <mxGeometry x="650" y="410" width="50" height="30" as="geometry" />
        </mxCell>
        <mxCell id="gGfzV0eq18XN1l7NrBOw-17" style="edgeStyle=orthogonalEdgeStyle;rounded=0;orthogonalLoop=1;jettySize=auto;html=1;entryX=0.5;entryY=1;entryDx=0;entryDy=0;align=center;fontStyle=1;fontSize=16;" parent="1" source="gGfzV0eq18XN1l7NrBOw-15" target="gGfzV0eq18XN1l7NrBOw-7" edge="1">
          <mxGeometry relative="1" as="geometry" />
        </mxCell>
        <mxCell id="gGfzV0eq18XN1l7NrBOw-18" style="edgeStyle=orthogonalEdgeStyle;rounded=0;orthogonalLoop=1;jettySize=auto;html=1;entryX=0.5;entryY=1;entryDx=0;entryDy=0;align=center;fontStyle=1;fontSize=16;" parent="1" source="gGfzV0eq18XN1l7NrBOw-15" target="gGfzV0eq18XN1l7NrBOw-3" edge="1">
          <mxGeometry relative="1" as="geometry" />
        </mxCell>
        <mxCell id="gGfzV0eq18XN1l7NrBOw-15" value="Whether to try again" style="rhombus;whiteSpace=wrap;html=1;fontStyle=1;align=center;fontSize=16;" parent="1" vertex="1">
          <mxGeometry x="636.88" y="690" width="146.25" height="100" as="geometry" />
        </mxCell>
        <mxCell id="gGfzV0eq18XN1l7NrBOw-19" value="&lt;span style=&quot;color: rgb(0, 0, 0); font-family: Helvetica; font-size: 16px; font-style: normal; font-variant-ligatures: normal; font-variant-caps: normal; letter-spacing: normal; orphans: 2; text-indent: 0px; text-transform: none; widows: 2; word-spacing: 0px; -webkit-text-stroke-width: 0px; background-color: rgb(251, 251, 251); text-decoration-thickness: initial; text-decoration-style: initial; text-decoration-color: initial; float: none; display: inline !important;&quot;&gt;Yes&lt;/span&gt;" style="text;whiteSpace=wrap;html=1;align=center;fontStyle=1;fontSize=16;" parent="1" vertex="1">
          <mxGeometry x="576.88" y="710" width="60" height="40" as="geometry" />
        </mxCell>
        <mxCell id="gGfzV0eq18XN1l7NrBOw-20" value="&lt;span style=&quot;font-size: 16px;&quot;&gt;&lt;font style=&quot;font-size: 16px;&quot;&gt;No&lt;/font&gt;&lt;/span&gt;" style="text;html=1;align=center;verticalAlign=middle;resizable=0;points=[];autosize=1;strokeColor=none;fillColor=none;fontStyle=1;fontSize=16;" parent="1" vertex="1">
          <mxGeometry x="783.13" y="710" width="40" height="30" as="geometry" />
        </mxCell>
        <mxCell id="gGfzV0eq18XN1l7NrBOw-24" value="" style="edgeStyle=orthogonalEdgeStyle;rounded=0;orthogonalLoop=1;jettySize=auto;html=1;fontSize=16;" parent="1" source="gGfzV0eq18XN1l7NrBOw-21" target="gGfzV0eq18XN1l7NrBOw-23" edge="1">
          <mxGeometry relative="1" as="geometry" />
        </mxCell>
        <mxCell id="gGfzV0eq18XN1l7NrBOw-21" value="Verify user identification" style="whiteSpace=wrap;html=1;fontStyle=1;fontSize=16;" parent="1" vertex="1">
          <mxGeometry x="650" y="230" width="120" height="60" as="geometry" />
        </mxCell>
        <mxCell id="gGfzV0eq18XN1l7NrBOw-28" style="edgeStyle=orthogonalEdgeStyle;rounded=0;orthogonalLoop=1;jettySize=auto;html=1;fontSize=16;" parent="1" source="gGfzV0eq18XN1l7NrBOw-23" target="gGfzV0eq18XN1l7NrBOw-7" edge="1">
          <mxGeometry relative="1" as="geometry" />
        </mxCell>
        <mxCell id="gGfzV0eq18XN1l7NrBOw-30" value="" style="edgeStyle=orthogonalEdgeStyle;rounded=0;orthogonalLoop=1;jettySize=auto;html=1;fontSize=16;" parent="1" source="gGfzV0eq18XN1l7NrBOw-23" target="gGfzV0eq18XN1l7NrBOw-29" edge="1">
          <mxGeometry relative="1" as="geometry" />
        </mxCell>
        <mxCell id="gGfzV0eq18XN1l7NrBOw-23" value="&lt;b style=&quot;font-size: 16px;&quot;&gt;User verify succeed&lt;/b&gt;" style="rhombus;whiteSpace=wrap;html=1;fontSize=16;" parent="1" vertex="1">
          <mxGeometry x="650" y="102.5" width="120" height="105" as="geometry" />
        </mxCell>
        <mxCell id="gGfzV0eq18XN1l7NrBOw-26" value="&lt;span style=&quot;font-size: 16px;&quot;&gt;&lt;font style=&quot;font-size: 16px;&quot;&gt;Yes&lt;/font&gt;&lt;/span&gt;" style="text;html=1;align=center;verticalAlign=middle;resizable=0;points=[];autosize=1;strokeColor=none;fillColor=none;fontStyle=1;fontSize=16;" parent="1" vertex="1">
          <mxGeometry x="770" y="130" width="50" height="30" as="geometry" />
        </mxCell>
        <mxCell id="gGfzV0eq18XN1l7NrBOw-27" value="&lt;span style=&quot;font-size: 16px;&quot;&gt;&lt;font style=&quot;font-size: 16px;&quot;&gt;No&lt;/font&gt;&lt;/span&gt;" style="text;html=1;align=center;verticalAlign=middle;resizable=0;points=[];autosize=1;strokeColor=none;fillColor=none;fontStyle=1;fontSize=16;" parent="1" vertex="1">
          <mxGeometry x="610" y="130" width="40" height="30" as="geometry" />
        </mxCell>
        <mxCell id="gGfzV0eq18XN1l7NrBOw-36" value="" style="edgeStyle=orthogonalEdgeStyle;rounded=0;orthogonalLoop=1;jettySize=auto;html=1;fontSize=16;" parent="1" source="gGfzV0eq18XN1l7NrBOw-29" target="gGfzV0eq18XN1l7NrBOw-31" edge="1">
          <mxGeometry relative="1" as="geometry">
            <Array as="points">
              <mxPoint x="530" y="200" />
              <mxPoint x="530" y="200" />
            </Array>
          </mxGeometry>
        </mxCell>
        <mxCell id="gGfzV0eq18XN1l7NrBOw-29" value="&lt;b style=&quot;font-size: 16px;&quot;&gt;Prompt the user and send a risk warning email&lt;/b&gt;" style="whiteSpace=wrap;html=1;fontSize=16;" parent="1" vertex="1">
          <mxGeometry x="460" y="120" width="140" height="70" as="geometry" />
        </mxCell>
        <mxCell id="gGfzV0eq18XN1l7NrBOw-38" style="edgeStyle=orthogonalEdgeStyle;rounded=0;orthogonalLoop=1;jettySize=auto;html=1;entryX=1;entryY=0;entryDx=0;entryDy=0;fontSize=16;" parent="1" source="gGfzV0eq18XN1l7NrBOw-31" target="gGfzV0eq18XN1l7NrBOw-7" edge="1">
          <mxGeometry relative="1" as="geometry">
            <Array as="points">
              <mxPoint x="430" y="270" />
              <mxPoint x="430" y="90" />
              <mxPoint x="892" y="90" />
            </Array>
          </mxGeometry>
        </mxCell>
        <mxCell id="5qkCNjKCWz6mhbz3fY8r-2" style="edgeStyle=orthogonalEdgeStyle;rounded=0;orthogonalLoop=1;jettySize=auto;html=1;entryX=0;entryY=0.5;entryDx=0;entryDy=0;" edge="1" parent="1" source="gGfzV0eq18XN1l7NrBOw-31" target="gGfzV0eq18XN1l7NrBOw-32">
          <mxGeometry relative="1" as="geometry">
            <Array as="points">
              <mxPoint x="530" y="360" />
            </Array>
          </mxGeometry>
        </mxCell>
        <mxCell id="gGfzV0eq18XN1l7NrBOw-31" value="Whether to try again" style="rhombus;whiteSpace=wrap;html=1;fontStyle=1;align=center;fontSize=16;" parent="1" vertex="1">
          <mxGeometry x="477.5" y="230" width="105" height="80" as="geometry" />
        </mxCell>
        <mxCell id="gGfzV0eq18XN1l7NrBOw-35" style="edgeStyle=orthogonalEdgeStyle;rounded=0;orthogonalLoop=1;jettySize=auto;html=1;entryX=0.5;entryY=1;entryDx=0;entryDy=0;fontSize=16;" parent="1" source="gGfzV0eq18XN1l7NrBOw-32" target="gGfzV0eq18XN1l7NrBOw-21" edge="1">
          <mxGeometry relative="1" as="geometry" />
        </mxCell>
        <mxCell id="gGfzV0eq18XN1l7NrBOw-32" value="&lt;b style=&quot;font-size: 16px;&quot;&gt;Send verify email&lt;/b&gt;" style="whiteSpace=wrap;html=1;fontSize=16;" parent="1" vertex="1">
          <mxGeometry x="650" y="330" width="120" height="60" as="geometry" />
        </mxCell>
      </root>
    </mxGraphModel>
  </diagram>
</mxfile>
